<svg xmlns="http://www.w3.org/2000/svg" xmlns:xlink="http://www.w3.org/1999/xlink" width="132.00399780273438" height="132"><rect id="backgroundrect" width="100%" height="100%" x="0" y="0" fill="none" stroke="none"/>
	<defs>
		<linearGradient id="b">
			<stop offset="0" stop-color="#3771c8"/>
			<stop stop-color="#3771c8" offset=".128"/>
			<stop offset="1" stop-color="#60f" stop-opacity="0"/>
		</linearGradient>
		<linearGradient id="a">
			<stop offset="0" stop-color="#fd5"/>
			<stop offset=".1" stop-color="#fd5"/>
			<stop offset=".5" stop-color="#ff543e"/>
			<stop offset="1" stop-color="#c837ab"/>
		</linearGradient>
		<radialGradient id="c" cx="158.4290008544922" cy="578.0880126953125" r="65" xlink:href="#a" gradientUnits="userSpaceOnUse" gradientTransform="matrix(0 -1.98198 1.8439 0 -1031.402 454.004)" fx="158.4290008544922" fy="578.0880126953125"/>
		<radialGradient id="d" cx="147.69400024414062" cy="473.4549865722656" r="65" xlink:href="#b" gradientUnits="userSpaceOnUse" gradientTransform="matrix(.17394 .86872 -3.5818 .71718 1648.348 -458.493)" fx="147.69400024414062" fy="473.4549865722656"/>
	</defs>
	
	
	
<g class="currentLayer" style=""><title>Layer 1</title><path fill="url(#c)" d="M66.03399994850159,1 C38.891999948501585,1 30.953999948501586,1.028 29.410999948501587,1.1560000000000001 c-5.57,0.463 -9.036,1.34 -12.812,3.22 c-2.91,1.445 -5.205,3.12 -7.47,5.468 C5.003999948501587,14.126 2.503999948501587,19.394 1.598999948501587,25.656 c-0.44000000000000006,3.04 -0.5680000000000001,3.66 -0.5940000000000001,19.188 c-0.010000000000000002,5.176 0,11.988 0,21.125 c0,27.12 0.030000000000000006,35.05 0.16000000000000003,36.59 c0.45,5.42 1.3,8.83 3.1,12.56 c3.44,7.14 10.01,12.5 17.75,14.5 c2.68,0.6900000000000002 5.640000000000001,1.07 9.44,1.25 c1.61,0.07 18.02,0.12000000000000001 34.44,0.12000000000000001 c16.42,0 32.84,-0.020000000000000004 34.41,-0.1 c4.4,-0.20700000000000002 6.955,-0.55 9.78,-1.28 c7.79,-2.01 14.24,-7.29 17.75,-14.53 c1.7650000000000001,-3.64 2.66,-7.18 3.065,-12.317 c0.08800000000000002,-1.12 0.125,-18.977 0.125,-36.81 c0,-17.836 -0.04000000000000001,-35.66 -0.128,-36.78 c-0.41000000000000003,-5.22 -1.3050000000000002,-8.73 -3.127,-12.44 c-1.495,-3.037 -3.1550000000000002,-5.305 -5.565,-7.6240000000000006 C117.90399994850159,5 112.64399994850159,2.5 106.37599994850159,1.596 C103.33899994850158,1.157 102.73399994850159,1.027 87.19399994850158,1 H66.03399994850159 z" id="svg_1"/><path fill="#67cf71" d="M66.03399994850159,1 C38.891999948501585,1 30.953999948501586,1.028 29.410999948501587,1.1560000000000001 c-5.57,0.463 -9.036,1.34 -12.812,3.22 c-2.91,1.445 -5.205,3.12 -7.47,5.468 C5.003999948501587,14.126 2.503999948501587,19.394 1.598999948501587,25.656 c-0.44000000000000006,3.04 -0.5680000000000001,3.66 -0.5940000000000001,19.188 c-0.010000000000000002,5.176 0,11.988 0,21.125 c0,27.12 0.030000000000000006,35.05 0.16000000000000003,36.59 c0.45,5.42 1.3,8.83 3.1,12.56 c3.44,7.14 10.01,12.5 17.75,14.5 c2.68,0.6900000000000002 5.640000000000001,1.07 9.44,1.25 c1.61,0.07 18.02,0.12000000000000001 34.44,0.12000000000000001 c16.42,0 32.84,-0.020000000000000004 34.41,-0.1 c4.4,-0.20700000000000002 6.955,-0.55 9.78,-1.28 c7.79,-2.01 14.24,-7.29 17.75,-14.53 c1.7650000000000001,-3.64 2.66,-7.18 3.065,-12.317 c0.08800000000000002,-1.12 0.125,-18.977 0.125,-36.81 c0,-17.836 -0.04000000000000001,-35.66 -0.128,-36.78 c-0.41000000000000003,-5.22 -1.3050000000000002,-8.73 -3.127,-12.44 c-1.495,-3.037 -3.1550000000000002,-5.305 -5.565,-7.6240000000000006 C117.90399994850159,5 112.64399994850159,2.5 106.37599994850159,1.596 C103.33899994850158,1.157 102.73399994850159,1.027 87.19399994850158,1 H66.03399994850159 z" id="svg_2" class="selected" fill-opacity="1"/><path fill="#fff" d="M66.004 18c-13.036 0-14.672.057-19.792.29-5.11.234-8.598 1.043-11.65 2.23-3.157 1.226-5.835 2.866-8.503 5.535-2.67 2.668-4.31 5.346-5.54 8.502-1.19 3.053-2 6.542-2.23 11.65C18.06 51.327 18 52.964 18 66s.058 14.667.29 19.787c.235 5.11 1.044 8.598 2.23 11.65 1.227 3.157 2.867 5.835 5.536 8.503 2.667 2.67 5.345 4.314 8.5 5.54 3.054 1.187 6.543 1.996 11.652 2.23 5.12.233 6.755.29 19.79.29 13.037 0 14.668-.057 19.788-.29 5.11-.234 8.602-1.043 11.656-2.23 3.156-1.226 5.83-2.87 8.497-5.54 2.67-2.668 4.31-5.346 5.54-8.502 1.18-3.053 1.99-6.542 2.23-11.65.23-5.12.29-6.752.29-19.788 0-13.036-.06-14.672-.29-19.792-.24-5.11-1.05-8.598-2.23-11.65-1.23-3.157-2.87-5.835-5.54-8.503-2.67-2.67-5.34-4.31-8.5-5.535-3.06-1.187-6.55-1.996-11.66-2.23-5.12-.233-6.75-.29-19.79-.29zm-4.306 8.65c1.278-.002 2.704 0 4.306 0 12.816 0 14.335.046 19.396.276 4.68.214 7.22.996 8.912 1.653 2.24.87 3.837 1.91 5.516 3.59 1.68 1.68 2.72 3.28 3.592 5.52.657 1.69 1.44 4.23 1.653 8.91.23 5.06.28 6.58.28 19.39s-.05 14.33-.28 19.39c-.214 4.68-.996 7.22-1.653 8.91-.87 2.24-1.912 3.835-3.592 5.514-1.68 1.68-3.275 2.72-5.516 3.59-1.69.66-4.232 1.44-8.912 1.654-5.06.23-6.58.28-19.396.28-12.817 0-14.336-.05-19.396-.28-4.68-.216-7.22-.998-8.913-1.655-2.24-.87-3.84-1.91-5.52-3.59-1.68-1.68-2.72-3.276-3.592-5.517-.657-1.69-1.44-4.23-1.653-8.91-.23-5.06-.276-6.58-.276-19.398s.046-14.33.276-19.39c.214-4.68.996-7.22 1.653-8.912.87-2.24 1.912-3.84 3.592-5.52 1.68-1.68 3.28-2.72 5.52-3.592 1.692-.66 4.233-1.44 8.913-1.655 4.428-.2 6.144-.26 15.09-.27zm29.928 7.97c-3.18 0-5.76 2.577-5.76 5.758 0 3.18 2.58 5.76 5.76 5.76 3.18 0 5.76-2.58 5.76-5.76 0-3.18-2.58-5.76-5.76-5.76zm-25.622 6.73c-13.613 0-24.65 11.037-24.65 24.65 0 13.613 11.037 24.645 24.65 24.645C79.617 90.645 90.65 79.613 90.65 66S79.616 41.35 66.003 41.35zm0 8.65c8.836 0 16 7.163 16 16 0 8.836-7.164 16-16 16-8.837 0-16-7.164-16-16 0-8.837 7.163-16 16-16z" id="svg_3"/></g></svg>