<svg xmlns="http://www.w3.org/2000/svg" width="475" height="138" style=""><rect id="backgroundrect" width="100%" height="100%" x="0" y="0" fill="none" stroke="none"/><linearGradient id="a" x1="-0.03213314450270925" y1="0.03841266404650741" x2="0.7130219982856167" y2="0.6795319506406794"><stop offset="0" stop-color="#5a9fd4"/><stop offset="1" stop-color="#306998"/></linearGradient><linearGradient id="b" x1="0.6510152681120897" y1="0.7172291570259203" x2="0.38546380838834826" y2="0.34359638923413155"><stop offset="0" stop-color="#ffd43b"/><stop offset="1" stop-color="#ffe873"/></linearGradient><radialGradient id="c" cx="-3393.238037109375" cy="376.7909851074219" r="29.03700065612793" gradientTransform="matrix(0 -.2399 -1.0547 0 458.797 -680.1)" gradientUnits="userSpaceOnUse"><stop offset="0" stop-color="#b8b8b8" stop-opacity=".498"/><stop offset="1" stop-color="#7f7f7f" stop-opacity="0"/></radialGradient><g class="currentLayer" style=""><title>Layer 1</title><path d="M179.02259603881836,58.66699991607666 c0,-14.562 -4.152,-22.038 -12.457,-22.447 c-3.305,-0.15600000000000003 -6.53,0.37000000000000005 -9.669,1.589 c-2.505,0.8960000000000001 -4.191,1.784 -5.078,2.681 V75.24799991607667 c5.312,3.334 10.029,4.884 14.143,4.640000000000001 c8.703,-0.5770000000000001 13.061,-7.643 13.061,-21.221 zm10.244,0.6040000000000001 c0,7.398 -1.735,13.539 -5.225,18.422 c-3.8890000000000002,5.527 -9.279,8.373 -16.17,8.529 c-5.195,0.16500000000000004 -10.547,-1.462 -16.054,-4.8740000000000006 v31.591 l-8.909,-3.178 v-70.12 c1.462,-1.7930000000000001 3.3440000000000003,-3.333 5.6240000000000006,-4.640000000000001 c5.303,-3.09 11.745000000000001,-4.678 19.329,-4.756 l0.126,0.126 c6.931,-0.08700000000000002 12.271,2.7590000000000003 16.024,8.529 c3.5,5.293 5.255,12.077 5.255,20.371 zM243.71359603881837,80.00399991607667 c0,9.923 -0.994,16.794 -2.982,20.615 c-1.998,3.8200000000000003 -5.8,6.871 -11.414,9.143 c-4.552,1.7930000000000001 -9.475,2.7680000000000002 -14.757,2.934 l-1.473,-5.614 c5.371,-0.7300000000000001 9.153,-1.462 11.346,-2.193 c4.318,-1.462 7.281,-3.7030000000000003 8.909,-6.706 c1.306,-2.446 1.949,-7.115 1.949,-14.025 V81.83799991607665 c-6.092,2.769 -12.476,4.143 -19.152,4.143 c-4.3870000000000005,0 -8.256,-1.374 -11.59,-4.143 c-3.7430000000000003,-3.012 -5.614,-6.832 -5.614,-11.462 v-37.08 l8.909,-3.051 v37.321 c0,3.9859999999999998 1.286,7.057 3.859,9.211 s5.907,3.188 9.991,3.109 c4.084,-0.08800000000000002 8.46,-1.6670000000000003 13.109,-4.757 v-43.54 h8.909 v48.415 zM278.49059603881835,85.73499991607666 a35.51,35.51 0 0 1 -2.934,0.126 c-5.039,0 -8.968,-1.198 -11.774000000000001,-3.606 c-2.798,-2.407 -4.201,-5.73 -4.201,-9.971 v-35.09 h-6.102 v-5.604 h6.102 V16.70599991607666 l8.899000000000001,-3.168 v18.052 h10.01 v5.604 h-10.01 v34.846000000000004 c0,3.3440000000000003 0.8960000000000001,5.712 2.689,7.097 c1.54,1.1400000000000001 3.987,1.7930000000000001 7.32,1.959 v4.639 zM332.4315960388184,85.00399991607667 h-8.909 V50.61599991607666 c0,-3.499 -0.8180000000000001,-6.511 -2.446,-9.025 c-1.8810000000000002,-2.847 -4.493,-4.27 -7.847,-4.27 c-4.084,0 -9.191,2.154 -15.322,6.462 v41.221 h-8.908 V2.80699991607666 l8.908,-2.807 V37.43799991607666 c5.692,-4.143 11.911,-6.219 18.666,-6.219 c4.718,0 8.538,1.589 11.463,4.757 c2.934,3.167 4.396,7.115 4.396,11.833 v37.195 h-0.0010000000000000002 zM379.7825960388184,57.26399991607666 c0,-5.595 -1.062,-10.215 -3.178,-13.870000000000001 c-2.515,-4.454 -6.423,-6.804 -11.706,-7.047 c-9.767,0.5650000000000001 -14.641,7.563 -14.641,20.976 c0,6.15 1.014,11.287 3.061,15.41 c2.612,5.254 6.531,7.847 11.756,7.759 c9.805,-0.07900000000000001 14.708,-7.818 14.708,-23.228 zm9.757,0.05800000000000001 c0,7.964 -2.037,14.592 -6.102,19.884 c-4.475,5.927 -10.653,8.899000000000001 -18.539,8.899000000000001 c-7.817,0 -13.909,-2.973 -18.305,-8.899000000000001 c-3.987,-5.292 -5.976,-11.92 -5.976,-19.884 c0,-7.485 2.154,-13.782 6.463,-18.909 c4.552,-5.439 10.536,-8.168 17.935,-8.168 c7.397,0 13.421,2.729 18.061,8.168 c4.309,5.127 6.463,11.424 6.463,18.909 zM440.61359603881834,85.00399991607667 h-8.909 V48.66699991607666 c0,-3.9859999999999998 -1.198,-7.096 -3.596,-9.338000000000001 c-2.398,-2.232 -5.596,-3.314 -9.582,-3.227 c-4.229,0.07800000000000001 -8.256,1.462 -12.076,4.143 v44.759 h-8.909 v-45.86 c5.127,-3.732 9.845,-6.17 14.153,-7.3100000000000005 c4.064,-1.062 7.651,-1.589 10.741,-1.589 c2.114,0 4.104,0.20400000000000001 5.975,0.6140000000000001 c3.499,0.809 6.346,2.31 8.538,4.513 c2.447,2.4370000000000003 3.665,5.36 3.665,8.782 v40.85 z" fill="#67cf71" id="svg_1" class="" fill-opacity="1"/><path d="M54.91859603881836,3.13599991607666 c-4.584,0.021000000000000005 -8.961,0.41200000000000003 -12.812,1.094 c-11.346,2.005 -13.406,6.2 -13.406,13.938 v10.219 h26.812 v3.406 H18.63759603881836 c-7.792,0 -14.616,4.684 -16.75,13.594 c-2.462,10.213 -2.571,16.586 0,27.25 c1.9060000000000001,7.938 6.458,13.594 14.25,13.594 h9.219 v-12.25 c0,-8.85 7.657,-16.656 16.75,-16.656 h26.781 c7.455,0 13.406,-6.138 13.406,-13.625 V18.16699991607666 c0,-7.266 -6.13,-12.725 -13.406,-13.938 c-4.607,-0.7660000000000001 -9.385,-1.115 -13.969,-1.093 zm-14.5,8.218 c2.77,0 5.031,2.299 5.031,5.125 c0,2.816 -2.262,5.094 -5.031,5.094 c-2.779,0 -5.031,-2.277 -5.031,-5.094 c0,-2.826 2.252,-5.125 5.031,-5.125 z" fill="#67cf71" id="svg_2" class="" fill-opacity="1"/><path d="M85.63759603881836,31.791999916076662 V43.69799991607666 c0,9.231 -7.8260000000000005,17 -16.75,17 H42.10659603881836 c-7.336,0 -13.406,6.2780000000000005 -13.406,13.625 v25.531 c0,7.267 6.318,11.541 13.406,13.625 c8.487,2.496 16.626,2.947 26.781,0 c6.75,-1.9540000000000002 13.406,-5.888 13.406,-13.625 V89.63599991607666 H55.51259603881836 v-3.406 h40.187 c7.793,0 10.696,-5.436 13.406,-13.594 c2.8,-8.398 2.681,-16.476 0,-27.25 c-1.9260000000000002,-7.757 -5.604,-13.594 -13.406,-13.594 H85.63759603881836 zM70.57459603881836,96.44799991607665 c2.779,0 5.031,2.277 5.031,5.094 c0,2.826 -2.252,5.125 -5.031,5.125 c-2.77,0 -5.031,-2.299 -5.031,-5.125 c0,-2.816 2.262,-5.094 5.031,-5.094 z" fill="#67cf71" id="svg_3" class="" fill-opacity="1"/><path d="M457.96259603881833,23.64699991607666 h1.562 v-9.796 h3.6990000000000003 v-1.1680000000000001 h-8.962 v1.1680000000000001 h3.7 v9.796 m6.648,0 h1.334 v-8.947 l2.896,8.946 h1.485 l3.019,-8.916 v8.917 h1.456 V12.68399991607666 h-1.9260000000000002 l-3.299,9.393 l-2.8120000000000003,-9.393 h-2.153 v10.963000000000001 " fill="#67cf71" id="svg_4" class="" fill-opacity="1"/><path d="M91.74759603881836,130.83599991607667 c0,3.848 -16.087,6.9670000000000005 -35.932,6.9670000000000005 c-19.844,0 -35.931,-3.119 -35.931,-6.9670000000000005 s16.087,-6.968 35.931,-6.968 c19.845,0 35.932,3.12 35.932,6.968 z" opacity=".444" fill="url(#c)" id="svg_5" class=""/></g></svg>